<svg width="1440" height="921" viewBox="0 0 1440 921" fill="none" xmlns="http://www.w3.org/2000/svg">
<mask id="mask0_7890_3508" style="mask-type:alpha" maskUnits="userSpaceOnUse" x="0" y="0" width="1440" height="921">
<rect width="1440" height="921" fill="#F5F0EF"/>
</mask>
<g mask="url(#mask0_7890_3508)">
<path fill-rule="evenodd" clip-rule="evenodd" d="M712.569 -328.011C681.459 -283.561 644.712 -231.057 627.889 -158.809C606.796 -75.1937 618 -0.307739 627.17 60.9888C634.47 109.782 640.482 149.965 627.889 179.085C552.023 308.951 441 254.652 331.394 201.047C290.488 181.041 249.78 161.131 211.17 150.927C171.421 146.003 127.11 148.183 83.0239 150.352C-40.9578 156.452 -163.163 162.464 -177.136 10.1382C-182.012 -38.1865 -156.761 -84.0231 -127.236 -137.62C-99.4148 -188.122 -67.7983 -245.514 -54.0143 -318.37C-43.8249 -384.007 -55.5603 -441.496 -65.6324 -490.837C-74.2841 -533.219 -81.7085 -569.59 -72.9561 -599.948C-58.6846 -651.808 -25.2972 -689.459 9.20273 -728.365C43.3877 -766.915 78.6649 -806.697 97.5198 -862.755C114.921 -914.491 110.341 -960.286 105.81 -1005.6C100.476 -1058.93 95.2092 -1111.6 125.932 -1172.49C185.374 -1277.22 272.451 -1231.31 361.467 -1184.39C400.098 -1164.03 439.094 -1143.47 476.355 -1134.95C517.37 -1126.24 563.822 -1128.3 608.984 -1130.31C709.821 -1134.8 804.224 -1139 817.306 -1022.32C817.306 -953.019 790.967 -907.215 764.68 -861.502C741.12 -820.532 717.603 -779.636 713.127 -721.966C708.618 -668.349 723.426 -621.113 738.137 -574.184C754.33 -522.529 770.406 -471.244 760.481 -412.229C752.755 -385.43 733.999 -358.632 712.569 -328.011ZM590.011 0.741333C599.482 47.671 599.482 94.6007 580.54 122.759C514.126 234.65 424.426 194.23 334.3 153.619C295.904 136.317 257.43 118.981 220.647 113.373C184.729 108.288 144.642 110.09 104.904 111.877C-2.05711 116.685 -106.494 121.381 -120.305 -8.64465C-129.776 -46.1884 -110.834 -83.7322 -82.4216 -130.662C21.758 -299.609 182.763 -215.135 182.763 -215.135C50.1708 -299.609 2.81639 -393.468 -6.65448 -449.784C-7.62131 -454.575 -8.58815 -459.268 -9.53484 -463.863C-17.8616 -504.281 -24.6294 -537.132 -16.1254 -562.415C-8.36208 -600.884 12.1285 -626.739 34.9138 -655.49C39.9255 -661.814 45.0481 -668.278 50.1708 -675.047C125.938 -740.748 334.297 -656.275 334.297 -656.275C186.287 -747.952 146.703 -866.492 136.117 -898.194C135.865 -898.949 135.629 -899.655 135.409 -900.309C135.409 -913.45 135.03 -926.59 134.651 -939.731C133.136 -992.292 131.62 -1044.85 154.35 -1097.41C202.119 -1180.26 264.947 -1121.33 330.965 -1059.41C369.66 -1023.12 409.45 -985.802 447.948 -975.397C493.783 -968.409 546.181 -992.64 594.881 -1015.16C676.997 -1053.13 748.596 -1086.24 760.487 -956.625C760.487 -890.924 732.074 -843.994 703.662 -797.065L703.661 -797.064C702.81 -796.221 701.424 -794.543 699.461 -792.169C679.579 -768.117 600.55 -672.516 419.535 -646.889C419.535 -646.889 646.836 -646.889 694.19 -553.029C713.132 -515.486 722.603 -468.556 713.132 -421.626C703.661 -393.468 694.19 -374.697 675.249 -346.539V-355.925C675.249 -355.925 608.953 -215.135 381.652 -186.978C381.652 -186.978 561.598 -196.364 590.011 -8.64465V0.741333Z" fill="#F5F0EF"/>
<path fill-rule="evenodd" clip-rule="evenodd" d="M1979.31 1024.88C1952.41 1086.05 1921.42 1156.5 1915.92 1249.06C1910.95 1352.62 1937.35 1438.05 1959.4 1509.42C1979.32 1573.88 1995.7 1626.88 1982.22 1671.42C1919.35 1858.33 1768.91 1815.49 1618.27 1772.59C1564.67 1757.33 1511.04 1742.05 1461.32 1737.13C1408.86 1739.73 1352.05 1754.56 1295.7 1769.28C1148.59 1807.69 1004.68 1845.28 949.893 1662.04C931.008 1605.89 952.133 1545.08 976.898 1473.79C1001.81 1402.07 1030.41 1319.75 1025.66 1220.9C1025.66 1135.08 997.827 1061.53 973.97 998.482C956.078 951.197 940.422 909.822 940.422 873.619C945.314 800.898 980.527 743.202 1016.04 685.009C1049.29 630.54 1082.8 575.635 1091.96 507.567C1100.49 439.876 1084.02 385.533 1067.68 331.646C1047.77 265.983 1028.06 200.996 1054.07 113.357C1107.55 -32.3785 1227.07 4.22248 1349.37 41.6762C1400.36 57.29 1451.83 73.052 1499.2 75.8136C1547.35 75.8136 1600.57 62.3857 1653.31 49.0814C1776.93 17.8932 1897.86 -12.6158 1944.33 132.129C1964.31 216.279 1942.15 276.934 1919.51 338.876C1899.22 394.385 1878.56 450.928 1887.51 526.339C1892.09 594.419 1923.24 651.525 1954.2 708.27C1987.26 768.874 2020.1 829.067 2020.1 901.777C2016.12 941.19 1998.79 980.603 1979.31 1024.88ZM1603.35 1286.61C1603.35 1286.61 1811.71 1220.91 1896.95 1455.56C1902.9 1476.18 1908.84 1494.95 1914.2 1511.87C1925.92 1548.87 1934.83 1577.03 1934.83 1596.35C1878.07 1758.08 1741.57 1719.62 1608.97 1682.26C1564.57 1669.75 1520.61 1657.37 1480.23 1652.66C1433.07 1655.26 1382.29 1668.63 1332.09 1681.85C1200.83 1716.4 1073.59 1749.91 1025.63 1586.96C1006.69 1540.03 1025.63 1483.71 1044.57 1427.4C1129.81 1202.14 1347.64 1267.84 1347.64 1267.84C1158.22 1202.14 1082.46 1089.5 1054.04 1023.8C1035.1 976.873 1016.16 929.944 1016.16 892.4C1016.16 836.084 1044.57 779.769 1072.98 732.839C1158.22 638.979 1432.88 695.295 1432.88 695.295C1215.05 610.822 1148.75 479.418 1129.81 441.874C1125.86 426.238 1121.1 410.601 1116.28 394.795C1097.96 334.7 1078.9 272.154 1101.4 197.84C1142.49 87.3036 1227.25 142.643 1319.58 202.93C1376.21 239.907 1435.7 278.745 1489.7 282.314C1551.21 282.314 1611.34 239.849 1666.38 200.971C1755.43 138.081 1831.19 84.5771 1878.01 235.384C1893.52 304.541 1877.28 354.825 1860.49 406.838C1856.78 418.358 1853.03 429.962 1849.6 441.874C1849.6 451.26 1783.3 610.822 1537.06 695.295C1537.06 695.295 1811.71 648.365 1896.95 751.611C1925.36 798.541 1953.78 845.47 1953.78 911.172C1953.78 948.716 1944.3 976.873 1925.36 1014.42V1005.03C1925.36 1005.03 1878.01 1192.75 1603.35 1286.61Z" fill="#F5F0EF"/>
<path fill-rule="evenodd" clip-rule="evenodd" d="M273.64 420.371C282.276 483.692 292.227 556.653 334.297 629.615C379.098 718.414 444.831 773.505 501.241 820.782C552.154 863.453 595.473 899.758 608.952 948.737C649.865 1124.44 509.127 1163.91 367.01 1203.76C311.739 1219.26 256.259 1234.82 211.175 1258.47C169.642 1286.77 130.243 1327.06 91.0286 1367.15C-12.8308 1473.35 -115.397 1578.22 -252.898 1455.58C-295.615 1417.95 -309.788 1356.74 -326.411 1284.96C-342.958 1213.51 -361.933 1131.58 -413.903 1051.98C-457.734 975.965 -517.414 931.359 -569.104 892.725C-606.765 864.576 -640.186 839.597 -660.145 807.948C-694.644 744.453 -695.803 680.958 -696.986 616.14C-698.076 556.399 -699.187 495.534 -726.442 432.51C-756.334 373.26 -797.78 336.91 -838.624 301.087C-888.364 257.463 -937.211 214.621 -963.213 132.16C-989.614 -11.7399 -873.431 -41.684 -755.697 -72.0278C-704.486 -85.2263 -652.982 -98.5005 -612.791 -121.261C-578.204 -144.991 -545.111 -180.573 -511.833 -216.354C-426.653 -307.942 -340.26 -400.832 -224.485 -299.594C-163.333 -244.041 -148.795 -183.053 -133.659 -119.554C-120.665 -65.0408 -107.229 -8.67734 -63.4803 47.6861C-23.0629 101.093 30.1309 131.286 82.9751 161.28C141.576 194.542 199.747 227.56 239.588 291.721C260.649 325.116 266.723 369.651 273.64 420.371ZM448.219 826.431C478.968 855.607 506.386 881.622 514.244 920.56C555.4 1076.91 432.611 1115.1 311.393 1152.8C265.244 1167.15 219.323 1181.43 182.763 1202.14C147.98 1226.76 114.5 1260.43 81.1263 1293.98C-12.717 1388.35 -105.717 1481.86 -224.485 1371.09C-262.368 1342.93 -281.31 1286.61 -290.781 1230.3C-328.664 1005.03 -120.305 948.718 -120.305 948.718C-309.723 986.261 -432.844 929.946 -489.669 892.402C-503.089 879.102 -516.51 868.158 -529.088 857.901C-552.016 839.203 -572.146 822.786 -584.378 798.542C-622.261 751.613 -622.261 695.297 -622.261 638.981C-603.32 507.578 -347.606 423.105 -347.606 423.105C-565.436 460.648 -698.028 385.561 -726.441 366.789C-733.601 359.694 -740.76 352.747 -747.863 345.856C-797.134 298.052 -843.671 252.901 -868.504 179.07C-892.056 62.3669 -791.151 65.3769 -684.125 68.5694C-618.999 70.5121 -551.606 72.5225 -508.611 47.667C-458.05 15.455 -430.901 -49.5125 -406.157 -108.723C-366.013 -204.787 -332.201 -285.698 -215.014 -186.982C-167.262 -139.658 -152.949 -85.7062 -138.356 -30.6962C-135.583 -20.2439 -132.8 -9.7533 -129.776 0.737274C-129.776 1.36176 -129.65 2.65106 -129.463 4.57199C-126.834 31.5221 -112.076 182.798 -262.368 366.789C-262.368 366.789 -63.4798 188.456 59.6416 226C106.996 254.158 154.35 291.702 182.763 338.631C196.052 351.801 200.018 374.21 204.472 399.376C206.366 410.082 208.349 421.286 211.176 432.491V423.105C211.176 423.105 268.001 601.438 88.0543 817.314C88.0543 817.314 230.117 657.753 419.535 807.928H429.006C435.457 814.322 441.908 820.443 448.219 826.431Z" fill="#F5F0EF"/>
</g>
</svg>
