<svg width="1440" height="743" viewBox="0 0 1440 743" fill="none" xmlns="http://www.w3.org/2000/svg">
<mask id="mask0_3443_2136" style="mask-type:alpha" maskUnits="userSpaceOnUse" x="0" y="0" width="1440" height="743">
<rect width="1440" height="743" fill="#D9D9D9"/>
</mask>
<g mask="url(#mask0_3443_2136)">
<path d="M645.104 181.25V236.25H642.604C642.354 229 640.604 219.5 636.104 215.5C632.354 212.25 627.604 212.75 613.604 212.75V255C613.604 260.5 615.354 265 619.354 267C623.104 268.75 630.854 269.75 635.104 270V273H573.354V270C577.354 269.75 586.104 269 589.104 268C593.604 266.25 595.354 262 595.354 256.5V212.75H531.604V209L608.604 98.25H613.604V203.5C627.854 203.5 631.854 203.75 635.854 200.25C639.854 196.5 642.104 187.5 642.104 181.25H645.104ZM542.104 203.5H595.354V126.25L542.104 203.5ZM770.006 183.5C770.006 240.75 743.006 276.5 713.006 276.5C677.006 276.5 658.006 237 658.006 191.5C658.006 133.75 685.506 98.75 715.006 98.75C750.256 98.75 770.006 137.5 770.006 183.5ZM749.006 187.25C749.006 142.25 738.006 102.75 714.256 102.75C694.756 102.75 678.756 137.25 678.756 187.75C678.756 234.5 690.006 272.5 713.506 272.5C732.756 272.5 749.006 237.75 749.006 187.25ZM889.244 181.25V236.25H886.744C886.494 229 884.744 219.5 880.244 215.5C876.494 212.25 871.744 212.75 857.744 212.75V255C857.744 260.5 859.494 265 863.494 267C867.244 268.75 874.994 269.75 879.244 270V273H817.494V270C821.494 269.75 830.244 269 833.244 268C837.744 266.25 839.494 262 839.494 256.5V212.75H775.744V209L852.744 98.25H857.744V203.5C871.994 203.5 875.994 203.75 879.994 200.25C883.994 196.5 886.244 187.5 886.244 181.25H889.244ZM786.244 203.5H839.494V126.25L786.244 203.5Z" fill="#D2E8F7"/>
<path d="M-7 263.544C262.096 263.544 264.537 233 492.25 233C719.963 233 716.304 263.544 991.5 263.544C1266.7 263.544 1263.04 233 1490.75 233C1718.46 233 1714.8 263.544 1990 263.544V781H-7L-7 263.544Z" fill="#3E6C8A"/>
<path d="M-414 276.544C-144.904 276.544 -142.463 246 85.25 246C312.963 246 309.304 276.544 584.5 276.544C859.696 276.544 856.037 246 1083.75 246C1311.46 246 1307.8 276.544 1583 276.544V794H-414L-414 276.544Z" fill="#1D4763"/>
</g>
</svg>
