<svg width="403" height="26" viewBox="0 0 403 26" fill="none" xmlns="http://www.w3.org/2000/svg">
	<g clip-path="url(#clip0_106_770)">
		<path d="M23.3184 24.5754H18.2167V23.475C20.4028 23.475 20.7665 23.1089 20.7665 20.908V13.2051H6.92217V20.5419C6.92217 22.7428 7.28585 23.4771 9.47202 23.4771V24.5775H0V23.4771C2.54984 23.4771 2.91557 22.7428 2.91557 20.5419V4.03553C2.91557 2.2008 2.55189 1.83468 0.365723 1.83468V0.734253H9.11038V1.83468C6.56054 1.83468 6.56054 2.56898 6.56054 4.03553V11.3724H20.4069V4.03553C20.4069 2.2008 20.0432 1.83468 17.8571 1.83468V0.734253H26.9654V1.83468C24.4156 1.83468 24.4156 2.56898 24.4156 4.03553V20.908C24.4156 23.1089 24.7793 23.475 27.3311 23.475V24.5754H23.3225H23.3184Z" fill="#DAE2ED"/>
		<path d="M42.2647 1.83469C37.5287 2.569 34.6131 7.70294 35.3425 13.9394C36.0719 19.8076 40.4443 24.2093 45.1803 23.8432C49.9163 23.1089 52.8319 17.9749 52.1025 11.7385C51.3731 5.87027 47.0007 1.46857 42.2647 1.83469ZM43.7235 25.3097C36.8013 25.3097 31.3359 19.8076 31.3359 12.8389C31.3359 5.87027 36.7993 0.366089 43.7235 0.366089C50.6477 0.366089 56.1111 5.86821 56.1111 12.8369C56.1111 19.8056 50.6457 25.3077 43.7235 25.3077V25.3097Z" fill="#DAE2ED"/>
		<path d="M63.3968 19.8077V6.96867H59.7539V5.50213C62.6695 5.50213 64.1262 3.30128 65.2193 0H66.6761V4.76782H74.6913V6.60255H66.6761V17.6068C66.6761 21.6424 66.6761 24.9437 74.6913 21.2742L75.055 22.3746C64.4879 28.9772 63.3948 22.0085 63.3948 19.8077H63.3968Z" fill="#DAE2ED"/>
		<path d="M89.9944 2.56703C86.7151 2.56703 83.7996 6.23443 83.7996 11.0043H91.4512C95.0941 11.0043 96.1872 10.6382 96.1872 8.80346C96.1872 6.23648 93.6373 2.2009 89.9923 2.56703H89.9944ZM79.793 13.5713C79.793 5.50218 84.529 0.7323 90.3601 0.7323C96.5549 0.7323 100.198 5.50012 99.8342 11.0022C99.8342 12.837 99.4705 12.4688 98.3774 12.4688H83.8037C83.8037 17.2366 86.3535 26.7743 99.4705 21.2722L99.8342 22.3726C85.2604 29.7095 79.795 20.5379 79.795 13.5692L79.793 13.5713Z" fill="#DAE2ED"/>
		<path d="M120.967 24.9416H104.57V23.8412C107.486 23.8412 107.486 23.1069 107.486 20.9061V5.86829C107.486 3.30131 107.122 2.20089 104.936 2.20089V1.10046H114.41V2.20089C112.224 2.20089 111.495 2.56701 111.495 5.50216V20.1738C111.495 23.109 112.588 23.4751 115.503 23.4751C118.419 23.4751 120.605 23.109 121.332 19.4395L122.425 19.8056L120.969 24.9416H120.967Z" fill="#DAE2ED"/>
		<path d="M153.393 13.5713C147.198 13.5713 143.555 15.7721 143.555 18.7073C143.555 21.2742 145.378 25.6759 153.393 20.542V13.5733V13.5713ZM157.402 25.3098C155.579 25.3098 153.759 24.2094 153.759 22.0085C143.557 28.9772 139.549 23.109 139.912 19.4416C140.276 15.406 144.648 11.7386 153.759 11.7386V7.33689C153.759 3.66949 153.029 2.56907 150.479 2.56907C146.836 2.56907 144.285 5.13604 144.285 7.33689C144.285 8.07119 142.462 8.80344 141.735 8.80344C140.278 8.80344 140.642 6.60259 141.371 5.50216C143.193 3.30131 147.2 1.10046 151.209 1.10046C154.852 1.10046 157.038 2.93519 157.038 6.60259V19.8077C157.038 22.0085 157.038 23.8433 158.86 23.4751C159.59 23.4751 160.317 23.109 161.046 22.3747L161.776 23.109C160.319 24.2094 159.226 25.3098 157.404 25.3098H157.402Z" fill="#DAE2ED"/>
		<path d="M189.828 5.50216V24.9416H188.006C186.183 22.7408 172.702 8.43526 171.609 6.23441V19.0734C171.609 23.109 171.973 23.8412 174.889 23.8412V24.9416H166.144V23.8412C168.694 23.8412 169.423 23.1069 169.423 18.7052V6.23647C169.423 2.93519 168.694 2.20089 165.78 2.20089V1.10046H171.609C173.432 3.30131 186.183 17.2407 187.642 19.0734V5.50216C187.642 2.93519 186.913 2.20089 184.363 2.20089V1.10046H192.744V2.20089C190.194 2.20089 189.828 2.93519 189.828 5.50216Z" fill="#DAE2ED"/>
		<path d="M221.891 2.56701H217.883V20.1738C217.883 23.109 219.339 23.4751 222.255 23.4751C226.627 23.4751 231.729 19.8077 231.363 13.2051C231.363 6.96871 227.72 2.56701 221.889 2.56701H221.891ZM222.621 24.9416H211.326V23.8412C213.876 23.8412 214.242 23.1069 214.242 20.9061V4.40174C214.242 2.20089 213.512 2.20089 211.326 2.20089V1.10046H221.528C227.722 1.10046 233.915 3.66744 235.008 12.1047C236.101 20.1738 229.543 24.9416 222.621 24.9416Z" fill="#DAE2ED"/>
		<path d="M250.312 2.56703C247.033 2.56703 244.117 6.23443 244.117 11.0043H251.769C255.412 11.0043 256.505 10.6382 256.505 8.80346C256.505 6.23648 253.955 2.2009 250.31 2.56703H250.312ZM240.108 13.5713C240.108 5.50218 244.844 0.7323 250.676 0.7323C256.87 0.7323 260.513 5.50012 260.15 11.0022C260.15 12.837 259.786 12.4688 258.693 12.4688H244.119C244.119 17.2366 246.669 26.7743 259.786 21.2722L260.15 22.3726C245.576 29.7095 240.11 20.5379 240.11 13.5692L240.108 13.5713Z" fill="#DAE2ED"/>
		<path d="M271.079 2.56691V13.5712C277.273 13.5712 279.46 11.3703 279.094 8.06904C278.73 3.66734 275.815 1.46649 271.079 2.56691ZM286.382 24.9415C280.187 25.3077 276.18 16.8724 274.358 15.0377C273.628 15.0377 272.172 15.4038 271.079 15.4038V21.2721C271.079 23.8391 271.442 24.2072 274.358 24.2072V25.3077H264.884V24.2072C267.434 24.2072 267.799 23.8411 267.799 21.6403V5.86819C267.799 3.30122 267.07 2.93304 264.884 2.93304V1.83261H271.806C278.728 1.46649 282.373 3.66734 282.737 8.80129C282.737 12.4687 280.187 14.3034 278.364 15.0377C281.644 19.0733 284.559 24.2072 288.932 24.5754V25.6758L286.382 24.9415Z" fill="#DAE2ED"/>
		<path d="M318.81 13.5713C312.615 13.5713 308.972 15.7721 308.972 18.7073C308.972 21.2742 310.795 25.6759 318.81 20.542V13.5733V13.5713ZM322.817 25.3098C320.994 25.3098 319.174 24.2094 319.174 22.0085C308.972 28.9772 304.964 23.109 305.327 19.4416C305.691 15.406 310.063 11.7386 319.174 11.7386V7.33689C319.174 3.66949 318.444 2.56907 315.894 2.56907C312.251 2.56907 309.7 5.13604 309.7 7.33689C309.7 8.07119 307.877 8.80344 307.15 8.80344C305.693 8.80344 306.057 6.60259 306.786 5.50216C308.609 3.30131 312.615 1.10046 316.624 1.10046C320.267 1.10046 322.453 2.93519 322.453 6.60259V19.8077C322.453 22.0085 322.453 23.8433 324.275 23.4751C325.005 23.4751 325.732 23.109 326.462 22.3747L327.191 23.109C325.734 24.2094 324.641 25.3098 322.819 25.3098H322.817Z" fill="#DAE2ED"/>
		<path d="M345.042 13.5713C338.847 13.5713 335.204 15.7721 335.204 18.7073C335.204 21.2742 337.026 25.6759 345.042 20.542V13.5733V13.5713ZM348.687 25.3098C346.864 25.3098 345.044 24.2094 345.044 22.0085C334.842 28.9772 330.834 23.109 331.197 19.4416C331.561 15.406 335.933 11.7386 345.044 11.7386V7.33689C345.044 3.66949 344.314 2.56907 341.764 2.56907C338.122 2.56907 335.57 5.13604 335.57 7.33689C335.57 8.07119 333.747 8.80344 333.02 8.80344C331.563 8.80344 331.927 6.60259 333.02 5.50216C334.842 3.30131 338.849 1.10046 342.858 1.10046C346.501 1.10046 348.687 2.93519 348.687 6.60259V19.8077C348.687 22.0085 348.687 23.8433 350.509 23.4751C351.239 23.4751 351.966 23.109 352.695 22.3747L353.425 23.109C351.968 24.2094 350.509 25.3098 348.689 25.3098H348.687Z" fill="#DAE2ED"/>
		<path d="M363.261 2.56691V13.5712C369.456 13.5712 371.642 11.3703 371.276 8.06904C371.276 3.66734 367.997 1.46649 363.261 2.56691ZM378.928 24.9415C372.733 25.3077 368.726 16.8724 366.904 15.0377C366.174 15.0377 364.718 15.4038 363.624 15.4038V21.2721C363.624 23.8391 363.988 24.2072 366.904 24.2072V25.3077H357.43V24.2072C359.98 24.2072 360.345 23.8411 360.345 21.6403V5.86819C360.345 3.30122 359.616 2.93304 357.43 2.93304V1.83261H364.352C371.274 1.46649 374.919 3.66734 375.283 8.80129C375.283 12.4687 372.733 14.3034 370.91 15.0377C374.19 19.0733 377.105 24.2072 381.477 24.5754V25.6758L378.928 24.9415Z" fill="#DAE2ED"/>
		<path d="M393.138 2.56703C389.859 2.56703 386.943 6.23443 386.943 11.0043H394.595C398.238 11.0043 399.331 10.6382 399.331 8.80346C399.331 6.23648 396.781 2.2009 393.136 2.56703H393.138ZM382.937 13.5713C382.937 5.50218 387.673 0.7323 393.504 0.7323C399.698 0.7323 403.341 5.50012 402.978 11.0022C402.978 12.837 402.614 12.4688 401.521 12.4688H386.947C386.947 17.2366 389.497 26.7743 402.614 21.2722L402.978 22.3726C388.404 29.7095 382.939 20.5379 382.939 13.5692L382.937 13.5713Z" fill="#DAE2ED"/>
	</g>
	<defs>
		<clipPath id="clip0_106_770">
			<rect width="403" height="25.6759" fill="white"/>
		</clipPath>
	</defs>
</svg>
