<svg width="1440" height="353" viewBox="0 0 1440 353" fill="none" xmlns="http://www.w3.org/2000/svg">
  <path d="M-419 33.3031C-149.904 33.3031 -147.463 0 80.25 0C307.963 0 304.304 33.3031 579.5 33.3031C854.696 33.3031 851.037 0 1078.75 0C1306.46 0 1302.8 33.3031 1578 33.3031V350H-419V33.3031Z" fill="#3E6C8A"/>
  <path d="M-50 40.8274C219.096 40.8274 221.537 8 449.25 8C676.963 8 673.304 40.8274 948.5 40.8274C1223.7 40.8274 1220.04 8 1447.75 8C1675.46 8 1671.8 40.8274 1947 40.8274V353H-50V40.8274Z" fill="#0E324A"/>
</svg>
