<svg width="603" height="6" viewBox="0 0 603 6" fill="none" xmlns="http://www.w3.org/2000/svg">
<path d="M0.333333 3C0.333333 4.47276 1.52724 5.66667 3 5.66667C4.47276 5.66667 5.66667 4.47276 5.66667 3C5.66667 1.52724 4.47276 0.333333 3 0.333333C1.52724 0.333333 0.333333 1.52724 0.333333 3ZM597.333 3C597.333 4.47276 598.527 5.66667 600 5.66667C601.473 5.66667 602.667 4.47276 602.667 3C602.667 1.52724 601.473 0.333333 600 0.333333C598.527 0.333333 597.333 1.52724 597.333 3ZM3 3.5H600V2.5H3V3.5Z" fill="#3E6C8A"/>
</svg>
