<svg width="143" height="68" viewBox="0 0 143 68" fill="none" xmlns="http://www.w3.org/2000/svg">
	<path d="M141.843 7.88989C134.872 7.88989 128.494 5.05119 125.2 0.481175C124.983 0.179577 124.633 0 124.257 0C123.882 0 123.532 0.179577 123.314 0.481175C120.021 5.05119 113.645 7.88989 106.672 7.88989C99.6981 7.88989 93.3225 5.05119 90.0293 0.481175C89.8115 0.179577 89.4615 0 89.0861 0C88.7106 0 88.3607 0.179577 88.1428 0.481175C84.8496 5.05119 78.474 7.88989 71.5005 7.88989C64.527 7.88989 58.1514 5.05119 54.8582 0.481175C54.6403 0.179577 54.2904 0 53.9149 0C53.5395 0 53.1895 0.179577 52.9717 0.481175C49.6784 5.05119 43.3028 7.88989 36.3293 7.88989C29.3558 7.88989 22.9941 5.05119 19.7009 0.481175C19.4831 0.179577 19.1331 0 18.7577 0C18.3822 0 18.0323 0.179577 17.8144 0.481175C14.5235 5.05119 8.14559 7.88989 1.1744 7.88989C0.534756 7.88989 0.015625 8.4056 0.015625 9.04103C0.015625 9.67645 0.534756 10.1922 1.1744 10.1922C8.27306 10.1922 14.8549 7.47088 18.7577 3.00677C22.6604 7.47088 29.2423 10.1922 36.3409 10.1922C43.4396 10.1922 50.0214 7.47088 53.9242 3.00677C57.8269 7.47088 64.4088 10.1922 71.5074 10.1922C78.6061 10.1922 85.1879 7.47088 89.0907 3.00677C92.9935 7.47088 99.5753 10.1922 106.674 10.1922C113.773 10.1922 120.354 7.47088 124.257 3.00677C128.16 7.47088 134.742 10.1922 141.84 10.1922C142.48 10.1922 142.999 9.67645 142.999 9.04103C142.999 8.4056 142.48 7.88989 141.84 7.88989H141.843Z" fill="#D2E8F7"/>
	<path d="M141.843 22.3342C134.872 22.3342 128.494 19.4955 125.201 14.9255C124.983 14.6239 124.633 14.4443 124.258 14.4443C123.882 14.4443 123.532 14.6239 123.315 14.9255C120.021 19.4955 113.646 22.3342 106.672 22.3342C99.6987 22.3342 93.3231 19.4955 90.0299 14.9255C89.812 14.6239 89.4621 14.4443 89.0867 14.4443C88.7112 14.4443 88.3613 14.6239 88.1434 14.9255C84.8502 19.4955 78.4746 22.3342 71.5011 22.3342C64.5276 22.3342 58.152 19.4955 54.8587 14.9255C54.6409 14.6239 54.291 14.4443 53.9155 14.4443C53.5401 14.4443 53.1901 14.6239 52.9723 14.9255C49.679 19.4955 43.3034 22.3342 36.3299 22.3342C29.3564 22.3342 22.9808 19.4955 19.6876 14.9255C19.4697 14.6239 19.1198 14.4443 18.7444 14.4443C18.3689 14.4443 18.019 14.6239 17.8011 14.9255C14.5079 19.4955 8.13229 22.3342 1.15878 22.3342C0.519131 22.3342 0 22.8499 0 23.4854C0 24.1208 0.519131 24.6365 1.15878 24.6365C8.25743 24.6365 14.8393 21.9152 18.742 17.4511C22.6448 21.9152 29.2266 24.6365 36.3253 24.6365C43.424 24.6365 50.0058 21.9152 53.9086 17.4511C57.8113 21.9152 64.3932 24.6365 71.4918 24.6365C78.5905 24.6365 85.1723 21.9152 89.0751 17.4511C92.9778 21.9152 99.5597 24.6365 106.658 24.6365C113.757 24.6365 120.339 21.9152 124.242 17.4511C128.144 21.9152 134.726 24.6365 141.825 24.6365C142.464 24.6365 142.984 24.1208 142.984 23.4854C142.984 22.8499 142.464 22.3342 141.825 22.3342H141.843Z" fill="#D2E8F7"/>
	<path d="M141.843 36.7812C134.872 36.7812 128.494 33.9425 125.201 29.3725C124.983 29.0709 124.633 28.8914 124.258 28.8914C123.882 28.8914 123.532 29.0709 123.315 29.3725C120.021 33.9425 113.646 36.7812 106.672 36.7812C99.6987 36.7812 93.3231 33.9425 90.0299 29.3725C89.812 29.0709 89.4621 28.8914 89.0867 28.8914C88.7112 28.8914 88.3613 29.0709 88.1434 29.3725C84.8502 33.9425 78.4746 36.7812 71.5011 36.7812C64.5276 36.7812 58.152 33.9425 54.8587 29.3725C54.6409 29.0709 54.291 28.8914 53.9155 28.8914C53.5401 28.8914 53.1901 29.0709 52.9723 29.3725C49.679 33.9425 43.3034 36.7812 36.3299 36.7812C29.3564 36.7812 22.9808 33.9425 19.6876 29.3725C19.4697 29.0709 19.1198 28.8914 18.7444 28.8914C18.3689 28.8914 18.019 29.0709 17.8011 29.3725C14.5079 33.9425 8.13229 36.7812 1.15878 36.7812C0.519131 36.7812 0 37.297 0 37.9324C0 38.5678 0.519131 39.0835 1.15878 39.0835C8.25743 39.0835 14.8393 36.3622 18.742 31.8981C22.6448 36.3622 29.2266 39.0835 36.3253 39.0835C43.424 39.0835 50.0058 36.3622 53.9086 31.8981C57.8113 36.3622 64.3932 39.0835 71.4918 39.0835C78.5905 39.0835 85.1723 36.3622 89.0751 31.8981C92.9778 36.3622 99.5597 39.0835 106.658 39.0835C113.757 39.0835 120.339 36.3622 124.242 31.8981C128.144 36.3622 134.726 39.0835 141.825 39.0835C142.464 39.0835 142.984 38.5678 142.984 37.9324C142.984 37.297 142.464 36.7812 141.825 36.7812H141.843Z" fill="#D2E8F7"/>
	<path d="M141.843 51.2278C134.872 51.2278 128.494 48.3891 125.201 43.8191C124.983 43.5175 124.633 43.3379 124.258 43.3379C123.882 43.3379 123.532 43.5175 123.315 43.8191C120.021 48.3891 113.646 51.2278 106.672 51.2278C99.6987 51.2278 93.3231 48.3891 90.0299 43.8191C89.812 43.5175 89.4621 43.3379 89.0867 43.3379C88.7112 43.3379 88.3613 43.5175 88.1434 43.8191C84.8502 48.3891 78.4746 51.2278 71.5011 51.2278C64.5276 51.2278 58.152 48.3891 54.8587 43.8191C54.6409 43.5175 54.291 43.3379 53.9155 43.3379C53.5401 43.3379 53.1901 43.5175 52.9723 43.8191C49.679 48.3891 43.3034 51.2278 36.3299 51.2278C29.3564 51.2278 22.9808 48.3891 19.6876 43.8191C19.4697 43.5175 19.1198 43.3379 18.7444 43.3379C18.3689 43.3379 18.019 43.5175 17.8011 43.8191C14.5079 48.3891 8.13229 51.2278 1.15878 51.2278C0.519131 51.2278 0 51.7435 0 52.3789C0 53.0143 0.519131 53.5301 1.15878 53.5301C8.25743 53.5301 14.8393 50.8088 18.742 46.3447C22.6448 50.8088 29.2266 53.5301 36.3253 53.5301C43.424 53.5301 50.0058 50.8088 53.9086 46.3447C57.8113 50.8088 64.3932 53.5301 71.4918 53.5301C78.5905 53.5301 85.1723 50.8088 89.0751 46.3447C92.9778 50.8088 99.5597 53.5301 106.658 53.5301C113.757 53.5301 120.339 50.8088 124.242 46.3447C128.144 50.8088 134.726 53.5301 141.825 53.5301C142.464 53.5301 142.984 53.0143 142.984 52.3789C142.984 51.7435 142.464 51.2278 141.825 51.2278H141.843Z" fill="#D2E8F7"/>
	<path d="M141.843 65.6746C134.872 65.6746 128.494 62.8359 125.201 58.2658C124.983 57.9642 124.633 57.7847 124.258 57.7847C123.882 57.7847 123.532 57.9642 123.315 58.2658C120.021 62.8359 113.646 65.6746 106.672 65.6746C99.6987 65.6746 93.3231 62.8359 90.0299 58.2658C89.812 57.9642 89.4621 57.7847 89.0867 57.7847C88.7112 57.7847 88.3613 57.9642 88.1434 58.2658C84.8502 62.8359 78.4746 65.6746 71.5011 65.6746C64.5276 65.6746 58.152 62.8359 54.8587 58.2658C54.6409 57.9642 54.291 57.7847 53.9155 57.7847C53.5401 57.7847 53.1901 57.9642 52.9723 58.2658C49.679 62.8359 43.3034 65.6746 36.3299 65.6746C29.3564 65.6746 22.9808 62.8359 19.6876 58.2658C19.4697 57.9642 19.1198 57.7847 18.7444 57.7847C18.3689 57.7847 18.019 57.9642 17.8011 58.2658C14.5079 62.8359 8.13229 65.6746 1.15878 65.6746C0.519131 65.6746 0 66.1903 0 66.8257C0 67.4611 0.519131 67.9768 1.15878 67.9768C8.25743 67.9768 14.8393 65.2555 18.742 60.7914C22.6448 65.2555 29.2266 67.9768 36.3253 67.9768C43.424 67.9768 50.0058 65.2555 53.9086 60.7914C57.8113 65.2555 64.3932 67.9768 71.4918 67.9768C78.5905 67.9768 85.1723 65.2555 89.0751 60.7914C92.9778 65.2555 99.5597 67.9768 106.658 67.9768C113.757 67.9768 120.339 65.2555 124.242 60.7914C128.144 65.2555 134.726 67.9768 141.825 67.9768C142.464 67.9768 142.984 67.4611 142.984 66.8257C142.984 66.1903 142.464 65.6746 141.825 65.6746H141.843Z" fill="#D2E8F7"/>
</svg>
