<svg width="68" height="143" viewBox="0 0 68 143" fill="none" xmlns="http://www.w3.org/2000/svg">
<path d="M60.0867 141.843C60.0867 134.872 62.9254 128.494 67.4954 125.2C67.797 124.983 67.9766 124.633 67.9766 124.257C67.9766 123.882 67.797 123.532 67.4954 123.314C62.9254 120.021 60.0867 113.645 60.0867 106.672C60.0867 99.6981 62.9254 93.3225 67.4954 90.0293C67.797 89.8115 67.9766 89.4615 67.9766 89.0861C67.9766 88.7106 67.797 88.3607 67.4954 88.1428C62.9254 84.8496 60.0867 78.474 60.0867 71.5005C60.0867 64.527 62.9254 58.1514 67.4954 54.8582C67.797 54.6403 67.9766 54.2904 67.9766 53.9149C67.9766 53.5395 67.797 53.1895 67.4954 52.9717C62.9254 49.6784 60.0867 43.3028 60.0867 36.3293C60.0867 29.3558 62.9254 22.9941 67.4954 19.7009C67.797 19.4831 67.9766 19.1331 67.9766 18.7577C67.9766 18.3822 67.797 18.0323 67.4954 17.8144C62.9254 14.5235 60.0867 8.14559 60.0867 1.1744C60.0867 0.534756 59.571 0.0156246 58.9355 0.0156246C58.3001 0.0156246 57.7844 0.534756 57.7844 1.1744C57.7844 8.27306 60.5057 14.8549 64.9698 18.7577C60.5057 22.6604 57.7844 29.2423 57.7844 36.3409C57.7844 43.4396 60.5057 50.0214 64.9698 53.9242C60.5057 57.8269 57.7844 64.4088 57.7844 71.5074C57.7844 78.6061 60.5057 85.1879 64.9698 89.0907C60.5057 92.9935 57.7844 99.5753 57.7844 106.674C57.7844 113.773 60.5057 120.354 64.9698 124.257C60.5057 128.16 57.7844 134.742 57.7844 141.84C57.7844 142.48 58.3001 142.999 58.9355 142.999C59.571 142.999 60.0867 142.48 60.0867 141.84L60.0867 141.843Z" fill="#D2E8F7"/>
<path d="M45.6414 141.843C45.6414 134.872 48.4801 128.494 53.0501 125.201C53.3517 124.983 53.5312 124.633 53.5312 124.258C53.5312 123.882 53.3517 123.532 53.0501 123.315C48.4801 120.021 45.6414 113.646 45.6414 106.672C45.6414 99.6987 48.4801 93.3231 53.0501 90.0299C53.3517 89.812 53.5312 89.4621 53.5312 89.0867C53.5312 88.7112 53.3517 88.3613 53.0501 88.1434C48.4801 84.8502 45.6414 78.4746 45.6414 71.5011C45.6414 64.5276 48.4801 58.152 53.0501 54.8587C53.3517 54.6409 53.5312 54.291 53.5312 53.9155C53.5312 53.5401 53.3517 53.1901 53.0501 52.9723C48.4801 49.679 45.6414 43.3034 45.6414 36.3299C45.6414 29.3564 48.4801 22.9808 53.0501 19.6876C53.3517 19.4697 53.5312 19.1198 53.5312 18.7444C53.5312 18.3689 53.3517 18.019 53.0501 17.8011C48.4801 14.5079 45.6414 8.13229 45.6414 1.15878C45.6414 0.519131 45.1257 -3.6742e-07 44.4902 -3.95196e-07C43.8548 -4.22971e-07 43.3391 0.519131 43.3391 1.15878C43.3391 8.25743 46.0604 14.8393 50.5245 18.742C46.0604 22.6448 43.3391 29.2266 43.3391 36.3253C43.3391 43.424 46.0604 50.0058 50.5245 53.9086C46.0604 57.8113 43.3391 64.3932 43.3391 71.4918C43.3391 78.5905 46.0604 85.1723 50.5245 89.0751C46.0604 92.9778 43.3391 99.5597 43.3391 106.658C43.3391 113.757 46.0604 120.339 50.5245 124.242C46.0604 128.144 43.3391 134.726 43.3391 141.825C43.3391 142.464 43.8548 142.984 44.4902 142.984C45.1256 142.984 45.6414 142.464 45.6414 141.825L45.6414 141.843Z" fill="#D2E8F7"/>
<path d="M31.196 141.843C31.196 134.872 34.0347 128.494 38.6048 125.201C38.9064 124.983 39.0859 124.633 39.0859 124.258C39.0859 123.882 38.9064 123.532 38.6048 123.315C34.0347 120.021 31.196 113.646 31.196 106.672C31.196 99.6987 34.0347 93.3231 38.6048 90.0299C38.9064 89.812 39.0859 89.4621 39.0859 89.0867C39.0859 88.7112 38.9064 88.3613 38.6048 88.1434C34.0347 84.8502 31.196 78.4746 31.196 71.5011C31.196 64.5276 34.0347 58.152 38.6048 54.8587C38.9064 54.6409 39.0859 54.291 39.0859 53.9155C39.0859 53.5401 38.9064 53.1901 38.6048 52.9723C34.0347 49.679 31.196 43.3034 31.196 36.3299C31.196 29.3564 34.0347 22.9808 38.6048 19.6876C38.9064 19.4697 39.0859 19.1198 39.0859 18.7444C39.0859 18.3689 38.9064 18.019 38.6048 17.8011C34.0347 14.5079 31.196 8.13229 31.196 1.15878C31.196 0.519131 30.6803 -3.6742e-07 30.0449 -3.95196e-07C29.4095 -4.22971e-07 28.8938 0.519131 28.8938 1.15878C28.8938 8.25743 31.6151 14.8393 36.0792 18.742C31.6151 22.6448 28.8938 29.2266 28.8938 36.3253C28.8938 43.424 31.6151 50.0058 36.0792 53.9086C31.6151 57.8113 28.8938 64.3932 28.8938 71.4918C28.8938 78.5905 31.6151 85.1723 36.0792 89.0751C31.6151 92.9778 28.8938 99.5597 28.8938 106.658C28.8938 113.757 31.6151 120.339 36.0792 124.242C31.6151 128.144 28.8938 134.726 28.8938 141.825C28.8938 142.464 29.4095 142.984 30.0449 142.984C30.6803 142.984 31.196 142.464 31.196 141.825L31.196 141.843Z" fill="#D2E8F7"/>
<path d="M16.7468 141.843C16.7468 134.872 19.5855 128.494 24.1555 125.201C24.4571 124.983 24.6367 124.633 24.6367 124.258C24.6367 123.882 24.4571 123.532 24.1555 123.315C19.5855 120.021 16.7468 113.646 16.7468 106.672C16.7468 99.6987 19.5855 93.3231 24.1555 90.0299C24.4571 89.812 24.6367 89.4621 24.6367 89.0867C24.6367 88.7112 24.4571 88.3613 24.1555 88.1434C19.5855 84.8502 16.7468 78.4746 16.7468 71.5011C16.7468 64.5276 19.5855 58.152 24.1555 54.8587C24.4571 54.6409 24.6367 54.291 24.6367 53.9155C24.6367 53.5401 24.4571 53.1901 24.1555 52.9723C19.5855 49.679 16.7468 43.3034 16.7468 36.3299C16.7468 29.3564 19.5855 22.9808 24.1555 19.6876C24.4571 19.4697 24.6367 19.1198 24.6367 18.7444C24.6367 18.3689 24.4571 18.019 24.1555 17.8011C19.5855 14.5079 16.7468 8.13229 16.7468 1.15878C16.7468 0.519131 16.2311 -3.6742e-07 15.5957 -3.95196e-07C14.9603 -4.22971e-07 14.4446 0.519131 14.4446 1.15878C14.4446 8.25743 17.1658 14.8393 21.6299 18.742C17.1658 22.6448 14.4446 29.2266 14.4446 36.3253C14.4446 43.424 17.1658 50.0058 21.6299 53.9086C17.1658 57.8113 14.4446 64.3932 14.4446 71.4918C14.4446 78.5905 17.1658 85.1723 21.6299 89.0751C17.1658 92.9778 14.4446 99.5597 14.4446 106.658C14.4446 113.757 17.1658 120.339 21.6299 124.242C17.1658 128.144 14.4446 134.726 14.4446 141.825C14.4446 142.464 14.9603 142.984 15.5957 142.984C16.2311 142.984 16.7468 142.464 16.7468 141.825L16.7468 141.843Z" fill="#D2E8F7"/>
<path d="M2.30151 141.843C2.30151 134.872 5.14021 128.494 9.71023 125.201C10.0118 124.983 10.1914 124.633 10.1914 124.258C10.1914 123.882 10.0118 123.532 9.71023 123.315C5.14021 120.021 2.30151 113.646 2.30151 106.672C2.30151 99.6987 5.14022 93.3231 9.71023 90.0299C10.0118 89.812 10.1914 89.4621 10.1914 89.0867C10.1914 88.7112 10.0118 88.3613 9.71023 88.1434C5.14022 84.8502 2.30151 78.4746 2.30151 71.5011C2.30151 64.5276 5.14022 58.152 9.71023 54.8587C10.0118 54.6409 10.1914 54.291 10.1914 53.9155C10.1914 53.5401 10.0118 53.1901 9.71023 52.9723C5.14022 49.679 2.30151 43.3034 2.30151 36.3299C2.30151 29.3564 5.14022 22.9808 9.71023 19.6876C10.0118 19.4697 10.1914 19.1198 10.1914 18.7444C10.1914 18.3689 10.0118 18.019 9.71023 17.8011C5.14022 14.5079 2.30152 8.13229 2.30152 1.15878C2.30152 0.519131 1.78581 -3.6742e-07 1.15038 -3.95196e-07C0.514953 -4.22971e-07 -0.00075724 0.519131 -0.000757268 1.15878C-0.000757578 8.25743 2.72053 14.8393 7.18464 18.742C2.72053 22.6448 -0.000758495 29.2266 -0.000758805 36.3253C-0.000759116 43.424 2.72053 50.0058 7.18464 53.9086C2.72053 57.8113 -0.000760032 64.3932 -0.000760342 71.4918C-0.000760653 78.5905 2.72053 85.1723 7.18464 89.0751C2.72053 92.9778 -0.000761569 99.5597 -0.00076188 106.658C-0.00076219 113.757 2.72053 120.339 7.18464 124.242C2.72053 128.144 -0.000763106 134.726 -0.000763417 141.825C-0.000763445 142.464 0.514946 142.984 1.15037 142.984C1.7858 142.984 2.30151 142.464 2.30151 141.825L2.30151 141.843Z" fill="#D2E8F7"/>
</svg>
